<?xml version="1.0" encoding="UTF-8" standalone="no"?>
<svg
   xmlns:dc="http://purl.org/dc/elements/1.1/"
   xmlns:cc="http://creativecommons.org/ns#"
   xmlns:rdf="http://www.w3.org/1999/02/22-rdf-syntax-ns#"
   xmlns:svg="http://www.w3.org/2000/svg"
   xmlns="http://www.w3.org/2000/svg"
   viewBox="0 0 731.48627 133.56"
   height="133.56"
   width="731.48627"
   xml:space="preserve"
   version="1.1"
   id="svg2"><metadata
     id="metadata8"><rdf:RDF><cc:Work
         rdf:about=""><dc:format>image/svg+xml</dc:format><dc:type
           rdf:resource="http://purl.org/dc/dcmitype/StillImage" /><dc:title></dc:title></cc:Work></rdf:RDF></metadata><defs
     id="defs6"><clipPath
       id="clipPath22"
       clipPathUnits="userSpaceOnUse"><path
         id="path24"
         d="m 0,0 1024,0 0,768 L 0,768 0,0 Z" /></clipPath></defs><g
     transform="matrix(1.25,0,0,-1.25,-253.1868,559.86667)"
     id="g10"><g
       id="g12" /><g
       style="fill:#6ac9c9;fill-opacity:1"
       transform="translate(3.7509158,0)"
       id="g18"><g
         style="fill:#6ac9c9;fill-opacity:1"
         clip-path="url(#clipPath22)"
         id="g20"><g
           id="text4160"
           style="font-style:normal;font-variant:normal;font-weight:normal;font-stretch:normal;font-size:144px;line-height:125%;font-family:Kanji_PA;-inkscape-font-specification:Kanji_PA;letter-spacing:0px;word-spacing:0px;fill:#6ac9c9;fill-opacity:1;stroke:none;stroke-width:1px;stroke-linecap:butt;stroke-linejoin:miter;stroke-opacity:1"
           transform="matrix(1,0,0,-1,120.0293,-97.52381)"><path
             style="fill:#6ac9c9;fill-opacity:1"
             id="path4165"
             d="m 128.16123,-502.93715 q 6.912,2.592 12.528,5.76 5.76,3.024 9.792,7.056 4.032,3.888 6.192,9.072 2.304,5.04 2.304,11.808 0,14.4 -11.664,22.752 -10.512,7.632 -27.504,7.632 -8.928,0 -15.696,-1.872 -6.768004,-1.872 -11.808004,-4.752 -4.896,-3.024 -8.208,-6.48 -3.312,-3.456 -5.328,-6.48 l 7.056,-4.608 q 3.312,5.184 7.776,8.352 4.464,3.024 9.072004,4.752 4.752,1.584 9.216,2.16 4.464,0.432 7.92,0.432 6.912,0 12.672,-1.44 5.76,-1.584 9.936,-4.608 8.064,-5.904 8.064,-15.84 0,-4.464 -1.296,-7.92 -1.296,-3.6 -4.32,-6.624 -3.024,-3.168 -7.92,-5.904 -4.752,-2.736 -11.808,-5.472 l -7.056,-2.736 q -3.744,-1.44 -7.056,-2.88 -3.168,-1.584 -5.76,-3.744 -2.448,-2.16 -3.888,-4.896 -1.440004,-2.88 -1.440004,-6.912 0,-6.48 4.896004,-10.368 5.04,-4.032 13.248,-4.032 7.488,0 12.24,2.448 4.896,2.304 8.496,7.776 l -7.056,4.608 q -2.016,-3.312 -5.328,-4.896 -3.168,-1.584 -8.208,-1.584 -3.168,0 -5.04,0.72 -1.872,0.576 -3.024,1.584 -1.008,1.008 -1.44,2.016 -0.288,1.008 -0.288,1.728 0,1.584 0.432,2.88 0.432,1.152 1.728,2.304 1.44,1.152 3.888,2.448 2.592,1.296 6.768,2.88 l 6.912,2.88 z m -8.64,49.824 q -9.792,0 -16.416,-3.168 -6.624004,-3.312 -11.664004,-10.656 l 7.056,-4.608 q 1.584004,2.16 3.312004,4.032 1.872,1.872 4.32,3.168 2.592,1.296 5.76,2.016 3.312,0.72 7.632,0.72 1.296,0 3.6,-0.144 2.448,-0.288 4.752,-1.008 2.448,-0.72 4.176,-2.16 1.872,-1.584 1.872,-4.176 0,-1.872 -0.72,-3.312 -0.72,-1.584 -2.448,-3.024 -1.728,-1.44 -4.752,-2.88 -2.88,-1.584 -7.344,-3.312 l -7.2,-2.736 q -5.472,-2.16 -10.512,-4.752 -4.896004,-2.736 -8.784004,-6.336 -3.888,-3.744 -6.192,-8.64 -2.304,-5.04 -2.304,-11.952 0,-6.192 2.448,-11.52 2.592,-5.328 7.056,-9.072 4.608,-3.888 10.800004,-6.048 6.336,-2.16 13.68,-2.16 22.176,0 33.408,15.984 l -6.912,4.752 q -8.64,-12.24 -26.496,-12.24 -5.616,0 -10.368,1.584 -4.608,1.44 -8.064004,4.176 -3.312,2.592 -5.184,6.336 -1.872,3.744 -1.872,8.208 0,4.176 1.152,7.488 1.152,3.312 3.744,6.192 2.736,2.736 7.056004,5.184 4.32,2.448 10.512,4.896 l 7.056,2.736 q 4.32,1.728 8.064,3.6 3.744,1.728 6.48,4.032 2.88,2.304 4.464,5.472 1.728,3.024 1.728,7.344 0,2.88 -1.296,5.76 -1.152,2.88 -3.888,5.184 -2.592,2.304 -7.056,3.744 -4.32,1.296 -10.656,1.296 z" /><path
             style="fill:#6ac9c9;fill-opacity:1"
             id="path4167"
             d="m 256.95123,-519.92915 q -6.336,-7.776 -15.696,-12.384 -9.36,-4.608 -20.304,-4.608 -9.504,0 -18,3.6 -8.352,3.456 -14.688,9.648 -6.192,6.048 -9.792,14.256 -3.6,8.064 -3.6,17.28 0,9.216 3.6,17.424 3.6,8.064 9.792,14.112 6.336,6.048 14.688,9.648 8.496,3.456 18,3.456 10.944,0 20.304,-4.608 9.36,-4.608 15.696,-12.384 l 6.624,5.184 0.144,0 q -7.488,9.504 -18.576,15.12 -11.088,5.616 -24.192,5.616 -11.232,0 -21.168,-4.176 -9.936,-4.32 -17.424,-11.664 -7.344,-7.344 -11.664,-16.992 -4.32,-9.792 -4.32,-20.736 0,-10.944 4.32,-20.592 4.32,-9.792 11.664,-16.992 7.488,-7.344 17.424,-11.52 9.936,-4.176 21.168,-4.176 13.104,0 24.192,5.472 11.088,5.472 18.576,14.832 l -0.144,0.144 -6.624,5.04 z m -36,-0.864 q -6.048,0 -11.52,2.304 -5.328,2.16 -9.36,6.048 -4.032,3.888 -6.336,9.216 -2.304,5.184 -2.304,11.088 0,5.904 2.304,11.088 2.304,5.184 6.336,9.072 4.032,3.888 9.36,6.192 5.472,2.16 11.52,2.16 7.056,0 12.96,-2.88 6.048,-3.024 10.08,-7.92 l 6.768,5.184 q -5.184,6.48 -12.96,10.368 -7.776,3.744 -16.848,3.744 -7.92,0 -14.832,-2.88 -6.912,-2.88 -12.096,-7.92 -5.184,-5.04 -8.208,-11.808 -2.88,-6.768 -2.88,-14.4 0,-7.632 2.88,-14.4 3.024,-6.768 8.208,-11.808 5.184,-5.04 12.096,-7.92 6.912,-3.024 14.832,-3.024 9.072,0 16.848,3.888 7.776,3.744 12.96,10.224 l -6.768,5.328 q -4.176,-5.04 -10.08,-7.92 -5.904,-3.024 -12.96,-3.024 z" /><path
             style="fill:#6ac9c9;fill-opacity:1"
             id="path4169"
             d="m 320.16723,-461.17715 -3.168,5.904 0,-11.664 -1.872,-3.168 -40.608,-74.592 9.792,0 32.688,59.76 3.168,5.76 4.32,-8.064 -7.488,-13.968 -23.76,-43.488 9.792,0 26.352,48.384 26.496,-48.384 9.792,0 -23.76,43.488 -7.488,13.968 -1.008,1.872 -4.032,7.056 -3.888,7.2 -0.432,1.008 -4.896,8.928 z m 54.432,-83.52 9.792,0 -40.752,74.592 -1.728,3.168 0,11.664 0,16.272 -8.496,0 0,-12.096 -4.032,7.056 -2.592,5.04 -9.792,0 7.488,-13.968 1.008,-1.872 3.888,-7.2 4.032,-7.056 0.432,-1.008 4.896,-9.072 3.168,-5.76 32.688,-59.76 z" /><path
             style="fill:#6ac9c9;fill-opacity:1"
             id="path4171"
             d="m 417.70023,-463.62515 40.176,0 0,8.496 -65.232,0 0,-89.28 8.496,0 0,80.784 8.064,0 0,-80.784 8.496,0 0,80.784 z m -25.056,24.768 0,-8.496 65.232,0 0,8.496 -65.232,0 z" /><path
             style="fill:#6ac9c9;fill-opacity:1"
             id="path4173"
             d="m 495.32523,-463.62515 40.176,0 0,8.496 -65.232,0 0,-89.28 8.496,0 0,80.784 8.064,0 0,-80.784 8.496,0 0,80.784 z m -25.056,24.768 0,-8.496 65.232,0 0,8.496 -65.232,0 z" /><path
             style="fill:#6ac9c9;fill-opacity:1"
             id="path4175"
             d="m 576.98223,-438.85715 -9.936,0 11.664,-20.448 73.44,0 11.808,20.448 -10.368,0 -6.48,-11.952 -10.224,0 6.624,11.952 -9.792,0 -6.48,-11.952 -43.488,-0.144 -6.768,12.096 z m -20.016,0 -9.072,0 9.36,-18.288 48.096,-87.264 42.624,77.616 -75.6,0 -7.632,13.824 -7.776,14.112 z m 40.032,-36.576 16.56,0 -8.208,-14.544 -8.352,14.544 z m 8.352,-51.264 -28.224,51.264 10.08,0 18.144,-31.824 18,31.824 10.224,0 -28.224,-51.264 z" /></g></g></g></g></svg>