<?xml version="1.0" encoding="UTF-8" standalone="no"?>
<!-- Created with Inkscape (http://www.inkscape.org/) -->

<svg
   xmlns:dc="http://purl.org/dc/elements/1.1/"
   xmlns:cc="http://creativecommons.org/ns#"
   xmlns:rdf="http://www.w3.org/1999/02/22-rdf-syntax-ns#"
   xmlns:svg="http://www.w3.org/2000/svg"
   xmlns="http://www.w3.org/2000/svg"
   xmlns:sodipodi="http://sodipodi.sourceforge.net/DTD/sodipodi-0.dtd"
   xmlns:inkscape="http://www.inkscape.org/namespaces/inkscape"
   width="210mm"
   height="297mm"
   viewBox="0 0 744.09448819 1052.3622047"
   id="svg2"
   version="1.1"
   inkscape:version="0.91 r13725"
   sodipodi:docname="scyllalogo.svg">
  <defs
     id="defs4" />
  <sodipodi:namedview
     id="base"
     pagecolor="#ffffff"
     bordercolor="#666666"
     borderopacity="1.0"
     inkscape:pageopacity="0.0"
     inkscape:pageshadow="2"
     inkscape:zoom="0.96"
     inkscape:cx="352"
     inkscape:cy="853.61249"
     inkscape:document-units="px"
     inkscape:current-layer="g4157"
     showgrid="false"
     showguides="true"
     inkscape:guide-bbox="true"
     inkscape:window-width="1366"
     inkscape:window-height="716"
     inkscape:window-x="0"
     inkscape:window-y="0"
     inkscape:window-maximized="1">
    <sodipodi:guide
       position="342,920.00002"
       orientation="0,1"
       id="guide4175" />
    <sodipodi:guide
       position="328,886.00001"
       orientation="0,1"
       id="guide4177" />
    <sodipodi:guide
       position="240.30517,787.62912"
       orientation="0,1"
       id="guide4179" />
    <sodipodi:guide
       position="377,754.95306"
       orientation="0,1"
       id="guide4181" />
    <sodipodi:guide
       position="97,955.00002"
       orientation="1,0"
       id="guide4183" />
    <sodipodi:guide
       position="176,886.00001"
       orientation="1,0"
       id="guide4185" />
    <sodipodi:guide
       position="176,820.98593"
       orientation="1,0"
       id="guide4187" />
    <sodipodi:guide
       position="272,790.00001"
       orientation="1,0"
       id="guide4189" />
    <sodipodi:guide
       position="377,886.00001"
       orientation="1,0"
       id="guide4191" />
    <sodipodi:guide
       position="581,886.00001"
       orientation="1,0"
       id="guide4193" />
    <sodipodi:guide
       position="500,814.00001"
       orientation="1,0"
       id="guide4195" />
    <sodipodi:guide
       position="333.56808,725.00001"
       orientation="1,0"
       id="guide4199" />
    <sodipodi:guide
       position="406,735.00001"
       orientation="1,0"
       id="guide4201" />
    <sodipodi:guide
       position="428,727.00001"
       orientation="1,0"
       id="guide4203" />
    <sodipodi:guide
       position="457,709.00001"
       orientation="1,0"
       id="guide4205" />
    <sodipodi:guide
       position="479,756.00001"
       orientation="1,0"
       id="guide4207" />
    <sodipodi:guide
       position="192.65258,842.08922"
       orientation="1,0"
       id="guide4209" />
    <sodipodi:guide
       position="286.59625,859.78875"
       orientation="1,0"
       id="guide4211" />
  </sodipodi:namedview>
  <metadata
     id="metadata7">
    <rdf:RDF>
      <cc:Work
         rdf:about="">
        <dc:format>image/svg+xml</dc:format>
        <dc:type
           rdf:resource="http://purl.org/dc/dcmitype/StillImage" />
        <dc:title></dc:title>
      </cc:Work>
    </rdf:RDF>
  </metadata>
  <g
     inkscape:label="Layer 1"
     inkscape:groupmode="layer"
     id="layer1">
    <g
       transform="translate(-45.714286,-140)"
       style="font-style:normal;font-weight:normal;font-size:40px;line-height:125%;font-family:sans-serif;letter-spacing:0px;word-spacing:0px;fill:#000000;fill-opacity:1;stroke:none;stroke-width:1px;stroke-linecap:butt;stroke-linejoin:miter;stroke-opacity:1"
       id="flowRoot4136">
      <g
         id="g4157">
        <path
           id="path4147"
           style="font-style:normal;font-variant:normal;font-weight:500;font-stretch:normal;font-size:180px;font-family:BluePrinted;-inkscape-font-specification:'BluePrinted Medium'"
           d="m 315.1907,318.60383 q -7.74,-4.32 -14.04,-6.12 -6.3,-1.98 -14.4,-1.98 -13.68,0 -24.12,6.66 -10.26,6.66 -15.3,16.74 -5.04,10.08 -5.22,21.78 -0.18,8.82 2.52,16.74 2.88,7.92 8.46,14.4 5.58,6.3 14.76,10.26 9.36,3.78 21.24,3.78 18.54,0 25.92,-8.28 1.44,-1.62 3.06,-0.18 1.62,1.44 0.18,3.06 -8.82,9.72 -29.16,9.72 -12.78,0 -23.04,-4.14 -10.08,-4.32 -16.2,-11.34 -6.12,-7.2 -9.18,-15.84 -3.06,-8.64 -2.88,-18.18 0.18,-9.36 3.42,-18 3.42,-8.82 9.36,-15.84 5.94,-7.2 15.3,-11.34 9.54,-4.32 20.88,-4.32 8.82,0 15.66,2.16 6.84,1.98 14.94,6.66 1.8,1.08 0.72,2.88 -1.08,1.8 -2.88,0.72 z m -8.46,16.2 q -7.38,-7.2 -20.52,-7.2 -6.48,0 -11.7,3.42 -5.04,3.42 -8.46,9.36 -3.06,5.76 -3.78,12.6 -0.72,6.66 1.26,12.78 3.06,8.82 10.8,13.14 7.74,4.32 16.56,3.6 9,-0.72 16.74,-5.58 1.8,-1.26 2.88,0.72 1.26,1.8 -0.72,2.88 -8.46,5.4 -18.54,6.3 -9.9,0.9 -18.9,-3.96 -9.18,-5.04 -12.78,-15.66 -2.52,-7.2 -1.62,-14.76 0.72,-7.56 4.32,-14.22 3.78,-6.66 9.9,-10.8 6.3,-4.14 14.04,-4.14 14.94,0 23.4,8.64 1.62,1.44 0,3.06 -1.44,1.44 -2.88,-0.18 z" />
        <path
           id="path4149"
           style="font-style:normal;font-variant:normal;font-weight:500;font-stretch:normal;font-size:180px;font-family:BluePrinted;-inkscape-font-specification:'BluePrinted Medium'"
           d="m 371.51664,398.34383 q 0,2.16 -0.18,4.14 l 5.76,14.58 q 0.18,-1.08 1.26,-1.62 l 7.38,-18.18 -7.2,-18.36 -7.02,19.44 z m 28.08,-89.82 3.96,1.44 -22.86,62.82 7.38,18.54 32.58,-81.18 3.96,1.44 -45.54,113.58 -1.26,-0.36 q -1.08,1.26 -1.44,1.8 -5.58,7.56 -13.68,9.9 -7.92,2.52 -19.08,2.52 -2.16,0 -2.16,-2.16 0,-2.16 2.16,-2.16 10.62,0 17.46,-2.16 7.02,-1.98 11.7,-8.46 0.54,-0.72 1.62,-1.98 l -4.86,-12.42 q -1.8,3.96 -5.4,6.48 -5.76,4.14 -20.88,5.4 -0.9,0 -1.62,-0.54 -0.72,-0.54 -0.72,-1.44 0,-0.9 0.54,-1.62 0.54,-0.72 1.44,-0.72 13.86,-1.08 18.72,-4.68 4.32,-3.06 5.22,-9.54 l -36.72,-92.88 3.96,-1.44 33.84,85.32 q 0.36,-0.18 0.54,-0.18 l 7.74,-21.06 -24.84,-63.18 3.96,-1.44 23.04,58.5 21.24,-58.14 z" />
        <path
           id="path4151"
           style="font-style:normal;font-variant:normal;font-weight:500;font-stretch:normal;font-size:180px;font-family:BluePrinted;-inkscape-font-specification:'BluePrinted Medium'"
           d="m 449.97695,276.48383 4.32,0 0.9,125.28 -4.32,0 -0.9,-125.28 z m 21.42,-5.76 4.32,0 -0.18,129.24 -4.32,0 0.18,-129.24 z" />
        <path
           id="path4153"
           style="font-style:normal;font-variant:normal;font-weight:500;font-stretch:normal;font-size:180px;font-family:BluePrinted;-inkscape-font-specification:'BluePrinted Medium'"
           d="m 500.95352,276.48383 4.32,0 0.9,125.28 -4.32,0 -0.9,-125.28 z m 21.42,-5.76 4.32,0 -0.18,129.24 -4.32,0 0.18,-129.24 z" />
        <path
           inkscape:connector-curvature="0"
           id="path4149-1"
           style="font-style:normal;font-variant:normal;font-weight:500;font-stretch:normal;font-size:180px;line-height:125%;font-family:BluePrinted;-inkscape-font-specification:'BluePrinted Medium';letter-spacing:0px;word-spacing:0px;fill:#000000;fill-opacity:1;stroke:none;stroke-width:1px;stroke-linecap:butt;stroke-linejoin:miter;stroke-opacity:1"
           d="m 579.2158,343.07582 q 0,-2.16 -0.18,-4.14 l 5.76,-14.58 q 0.18,1.08 1.26,1.62 l 7.38001,18.18 -7.20001,18.36 -7.02,-19.44 z m 28.08001,89.82 3.96,-1.44 -22.86001,-62.82 7.38001,-18.54 32.58,81.18 3.96,-1.44 -45.54001,-113.58 -1.26,0.36 q -1.08,-1.26 -1.44,-1.8 -5.58,-7.56 -13.68,-9.9 -7.92,-2.52 -19.08,-2.52 -2.16,0 -2.16,2.16 0,2.16 2.16,2.16 10.62,0 17.46,2.16 7.02,1.98 11.7,8.46 0.54,0.72 1.62,1.98 l -4.86,12.42 q -1.8,-3.96 -5.4,-6.48 -5.76,-4.14 -20.88,-5.4 -0.9,0 -1.62,0.54 -0.72,0.54 -0.72,1.44 0,0.9 0.54,1.62 0.54,0.72 1.44,0.72 13.86,1.08 18.72,4.68 4.32,3.06 5.22,9.54 l -36.72,92.88 3.96,1.44 33.84,-85.32 q 0.36,0.18 0.54,0.18 l 7.74,21.06 -24.84,63.18 3.96,1.44 23.04,-58.5 21.24001,58.14 z" />
        <path
           inkscape:connector-curvature="0"
           id="path4147-4"
           style="font-style:normal;font-variant:normal;font-weight:500;font-stretch:normal;font-size:180px;line-height:125%;font-family:BluePrinted;-inkscape-font-specification:'BluePrinted Medium';letter-spacing:0px;word-spacing:0px;fill:#000000;fill-opacity:1;stroke:none;stroke-width:1px;stroke-linecap:butt;stroke-linejoin:miter;stroke-opacity:1"
           d="m 148.64889,395.67554 q 7.88207,4.055 14.23949,5.64028 6.36353,1.76519 14.45888,1.49045 13.67213,-0.46399 23.88022,-7.47425 10.02821,-7.00416 14.72343,-17.24931 4.69521,-10.24514 4.47828,-21.94452 -0.11926,-8.82102 -3.08633,-16.64489 -3.14697,-7.81776 -8.94354,-14.10477 -5.79047,-6.10712 -15.0995,-9.75348 -9.48283,-3.46036 -21.35599,-3.05742 -18.52934,0.62883 -25.62425,9.15438 -1.38422,1.66791 -3.05213,0.28368 -1.66791,-1.38422 -0.28369,-3.05213 8.48525,-10.01356 28.81355,-10.70344 12.77265,-0.43348 23.16716,3.35615 10.22073,3.97563 16.5753,10.78403 6.36069,6.98828 9.71197,15.51952 3.35129,8.53124 3.49496,18.07186 0.13757,9.36072 -2.80752,18.10564 -3.11888,8.93092 -8.81736,16.14835 -5.69238,7.39733 -14.90658,11.85241 -9.38799,4.64108 -20.72146,5.02571 -8.81493,0.29915 -15.72426,-1.62762 -6.90321,-1.74686 -15.15729,-6.14943 -1.83559,-1.01833 -0.81727,-2.85393 1.01833,-1.83559 2.85393,-0.81727 z m 7.90567,-16.47762 q 7.61996,6.94555 20.75239,6.49987 6.47628,-0.21978 11.57728,-3.81485 4.9211,-3.58898 8.13767,-9.64156 2.86287,-5.86048 3.35046,-12.72096 0.49369,-6.68059 -1.69274,-12.72991 -3.35739,-8.71114 -11.23945,-12.76615 -7.88206,-4.055 -16.67257,-3.03626 -8.9704,1.02485 -16.54111,6.14457 -1.75623,1.32033 -2.90276,-0.6219 -1.32033,-1.75623 0.6219,-2.90277 8.27198,-5.68383 18.31566,-6.9252 9.86377,-1.23526 19.02343,3.31669 9.34567,4.72573 13.30356,15.21773 2.76275,7.11039 2.11969,14.69656 -0.46318,7.58007 -3.83522,14.35835 -3.55193,6.78436 -9.52799,11.12956 -6.15596,4.3513 -13.89151,4.61382 -14.9314,0.50672 -23.67958,-7.84136 -1.66791,-1.38423 -0.10379,-3.05825 1.39033,-1.488 2.88445,0.0822 z" />
        <path
           inkscape:connector-curvature="0"
           id="path4147-0"
           style="font-style:normal;font-variant:normal;font-weight:500;font-stretch:normal;font-size:180px;line-height:125%;font-family:BluePrinted;-inkscape-font-specification:'BluePrinted Medium';letter-spacing:0px;word-spacing:0px;fill:#000000;fill-opacity:1;stroke:none;stroke-width:1px;stroke-linecap:butt;stroke-linejoin:miter;stroke-opacity:1"
           d="m 249.27034,347.09257 q -8.51583,2.4598 -15.0596,2.79004 -6.58444,0.50558 -14.47504,-1.32427 -13.32635,-3.09043 -21.99191,-11.93675 -8.49021,-8.80565 -11.12276,-19.76363 -2.63255,-10.95801 -0.16478,-22.39621 1.81717,-8.63266 6.23657,-15.73796 4.59475,-7.06463 11.49438,-12.11655 6.85898,-4.87657 16.69625,-6.66035 9.97197,-1.56779 21.54486,1.11601 18.06071,4.18834 23.37941,13.92149 1.03684,1.9034 2.94024,0.86662 1.90341,-1.03684 0.86662,-2.94024 -6.39616,-11.46123 -26.21034,-16.0562 -12.44963,-2.88712 -23.37966,-1.17196 -10.79533,1.93117 -18.343,7.38713 -7.58833,5.63131 -12.52107,13.35667 -4.93275,7.72536 -6.91257,17.05941 -1.93915,9.15869 -0.73477,18.30727 1.33908,9.3646 5.53964,17.54502 4.15993,8.35574 12.34267,14.50324 8.31745,6.3635 19.3643,8.92529 8.592,1.99252 15.74313,1.43357 7.11048,-0.38359 16.05834,-3.11276 1.99744,-0.64543 1.352,-2.64289 -0.64545,-1.99744 -2.64291,-1.352 z m -4.58157,-17.69239 q -8.81576,5.34666 -21.61607,2.37822 -6.31249,-1.46388 -10.62493,-5.97471 -4.13711,-4.47018 -6.12679,-11.02923 -1.67967,-6.30237 -0.83584,-13.12819 0.80316,-6.65049 4.11454,-12.16498 4.97341,-7.90071 13.48923,-10.3605 8.51584,-2.45978 16.94519,0.23411 8.60468,2.73456 15.04667,9.21745 1.46883,1.63406 2.9682,-0.0508 1.63408,-1.46882 -0.0508,-2.9682 -7.02139,-7.17159 -16.6375,-10.32548 -9.44076,-3.11322 -19.30601,-0.41204 -10.08126,2.83587 -15.98734,12.36806 -4.0814,6.44459 -4.91253,14.01245 -1.00648,7.52723 0.99591,14.82833 2.17772,7.34176 7.20424,12.7573 5.20188,5.4562 12.74179,7.20473 14.55378,3.37507 24.74693,-3.13039 1.90341,-1.03684 0.69127,-2.98089 -1.07745,-1.72809 -2.8462,-0.47527 z" />
        <text
           xml:space="preserve"
           style="font-style:normal;font-variant:normal;font-weight:500;font-stretch:normal;font-size:162.5px;line-height:125%;font-family:BluePrinted;-inkscape-font-specification:'BluePrinted Medium';letter-spacing:0px;word-spacing:0px;fill:#000000;fill-opacity:1;stroke:none;stroke-width:1px;stroke-linecap:butt;stroke-linejoin:miter;stroke-opacity:1"
           x="640.50592"
           y="205.90388"
           id="text4285"
           sodipodi:linespacing="125%"><tspan
             sodipodi:role="line"
             id="tspan4287"
             x="640.50592"
             y="205.90388"
             style="font-size:180px">x</tspan></text>
      </g>
      <path
         style="fill:none;fill-rule:evenodd;stroke:#008000;stroke-width:3.5;stroke-linecap:butt;stroke-linejoin:miter;stroke-opacity:1;stroke-miterlimit:4;stroke-dasharray:none"
         d="M 196.84105,209.35751 399.7049,193.70024"
         id="path4227"
         inkscape:connector-curvature="0" />
      <path
         style="fill:none;fill-rule:evenodd;stroke:#008000;stroke-width:3.5;stroke-linecap:butt;stroke-linejoin:miter;stroke-opacity:1;stroke-miterlimit:4;stroke-dasharray:none"
         d="m 451.71429,272.3622 0,132.3709"
         id="path4229"
         inkscape:connector-curvature="0" />
      <path
         style="fill:none;fill-rule:evenodd;stroke:#008000;stroke-width:1px;stroke-linecap:butt;stroke-linejoin:miter;stroke-opacity:1"
         d="m 473.71429,272.3622 0,132.3709"
         id="path4231"
         inkscape:connector-curvature="0" />
      <path
         style="fill:none;fill-rule:evenodd;stroke:#008000;stroke-width:1px;stroke-linecap:butt;stroke-linejoin:miter;stroke-opacity:1"
         d="m 502.71429,272.3622 0,132.3709"
         id="path4233"
         inkscape:connector-curvature="0" />
      <path
         style="fill:none;fill-rule:evenodd;stroke:#000000;stroke-width:1px;stroke-linecap:butt;stroke-linejoin:miter;stroke-opacity:1"
         d="m 524.71429,272.3622 0,132.3709"
         id="path4235"
         inkscape:connector-curvature="0" />
    </g>
  </g>
</svg>
